Coordinates
version=1
nRows=32
nColumns=12
inDegrees=yes

Units are S.I. units (second, meters, Newtons, ...)
Angles are in degrees

endheader
time	SC_y	SC_z	SC_x	AC_y	AC_z	AC_x	GH_y	GH_z	GH_yy	EL_x	PS_y
       0.0              -23.72           20.2          23.13          47.79         -1.817         -13.12          33.66          5.422           43.3          137.6          106.0
   0.03488              -23.72           20.2          23.13          47.79         -1.816         -13.11          33.66          5.429          43.29          137.6          105.9
   0.06976              -23.73           20.2          23.13          47.79         -1.816         -13.11          33.66          5.437          43.27          137.5          105.9
    0.1046              -23.73          20.19          23.13          47.79         -1.816         -13.11          33.65          5.446          43.25          137.5          105.9
    0.1395              -23.73          20.19          23.13          47.78         -1.816          -13.1          33.65          5.455          43.23          137.5          105.9
    0.1744              -23.74          20.18          23.13          47.78         -1.816          -13.1          33.65          5.464          43.21          137.5          105.9
    0.2093              -23.74          20.18          23.13          47.78         -1.816         -13.09          33.64          5.474          43.19          137.5          105.9
    0.2442              -23.74          20.17          23.13          47.77         -1.815         -13.09          33.64          5.485          43.16          137.5          105.9
     0.279              -23.75          20.17          23.13          47.77         -1.815         -13.08          33.63          5.497          43.14          137.5          105.9
    0.3139              -23.75          20.16          23.13          47.77         -1.815         -13.08          33.63           5.51          43.11          137.5          105.9
    0.3488              -23.75          20.16          23.13          47.76         -1.815         -13.07          33.62          5.523          43.08          137.5          105.9
    0.3837              -23.76          20.15          23.13          47.76         -1.814         -13.07          33.62          5.538          43.05          137.5          105.9
    0.4186              -23.76          20.15          23.13          47.75         -1.814         -13.06          33.61          5.553          43.01          137.5          105.9
    0.4534              -23.77          20.14          23.13          47.75         -1.814         -13.05           33.6           5.57          42.97          137.5          105.9
    0.4883              -23.77          20.13          23.13          47.74         -1.813         -13.04          33.59          5.588          42.93          137.5          105.8
    0.5232              -23.78          20.12          23.13          47.74         -1.813         -13.03          33.59          5.608          42.89          137.5          105.8
    0.5581              -23.79          20.11          23.13          47.73         -1.813         -13.02          33.58          5.629          42.84          137.5          105.8
     0.593              -23.79           20.1          23.13          47.73         -1.812         -13.01          33.57          5.653          42.79          137.5          105.8
    0.6278               -23.8          20.09          23.13          47.72         -1.812          -13.0          33.56          5.678          42.73          137.5          105.8
    0.6627              -23.81          20.08          23.13          47.71         -1.811         -12.99          33.54          5.706          42.67          137.5          105.8
    0.6976              -23.82          20.07          23.13           47.7         -1.811         -12.98          33.53          5.737           42.6          137.5          105.7
    0.7325              -23.83          20.05          23.13          47.69          -1.81         -12.96          33.52          5.771          42.52          137.5          105.7
    0.7674              -23.84          20.03          23.13          47.68         -1.809         -12.94           33.5          5.808          42.44          137.5          105.7
    0.8022              -23.85          20.02          23.13          47.67         -1.808         -12.93          33.48           5.85          42.35          137.5          105.7
    0.8371              -23.87           20.0          23.13          47.66         -1.807          -12.9          33.46          5.896          42.25          137.5          105.6
     0.872              -23.88          19.97          23.13          47.64         -1.806         -12.88          33.44          5.947          42.13          137.5          105.6
    0.9069               -23.9          19.95          23.13          47.62         -1.805         -12.86          33.42          6.005           42.0          137.5          105.6
    0.9418              -23.92          19.92          23.13           47.6         -1.804         -12.83          33.39           6.07          41.86          137.5          105.5
    0.9766              -23.94          19.89          23.13          47.58         -1.803         -12.79          33.36          6.143          41.69          137.5          105.5
     1.012              -23.97          19.85          23.13          47.56         -1.801         -12.76          33.32          6.226          41.51          137.5          105.4
     1.046               -24.0          19.81          23.13          47.53         -1.799         -12.71          33.28          6.321           41.3          137.4          105.4
     1.081              -24.03          19.77          23.13           47.5         -1.797         -12.67          33.23          6.429          41.05          137.4          105.3
